<mxfile host="app.diagrams.net" modified="2022-04-17T15:58:28.879Z" agent="5.0 (X11; Linux x86_64) AppleWebKit/537.36 (KHTML, like Gecko) Chrome/100.0.4896.127 Safari/537.36" etag="A1pEkCDqquPY6vs_DIVC" version="17.4.5" type="github">
  <diagram id="Hy0zxsCDOyBS_QhgSsgc" name="Page-1">
    <mxGraphModel dx="1422" dy="755" grid="1" gridSize="10" guides="1" tooltips="1" connect="1" arrows="1" fold="1" page="1" pageScale="1" pageWidth="827" pageHeight="1169" math="0" shadow="0">
      <root>
        <mxCell id="0" />
        <mxCell id="1" parent="0" />
        <mxCell id="1IXuXAn8EZQsGCZL8_qB-5" value="" style="edgeStyle=orthogonalEdgeStyle;rounded=0;orthogonalLoop=1;jettySize=auto;html=1;" edge="1" parent="1" source="1IXuXAn8EZQsGCZL8_qB-1" target="1IXuXAn8EZQsGCZL8_qB-4">
          <mxGeometry relative="1" as="geometry" />
        </mxCell>
        <mxCell id="1IXuXAn8EZQsGCZL8_qB-7" value="" style="edgeStyle=orthogonalEdgeStyle;rounded=0;orthogonalLoop=1;jettySize=auto;html=1;" edge="1" parent="1" source="1IXuXAn8EZQsGCZL8_qB-1" target="1IXuXAn8EZQsGCZL8_qB-6">
          <mxGeometry relative="1" as="geometry" />
        </mxCell>
        <mxCell id="1IXuXAn8EZQsGCZL8_qB-1" value="flash cards" style="rounded=0;whiteSpace=wrap;html=1;" vertex="1" parent="1">
          <mxGeometry x="370" y="280" width="120" height="60" as="geometry" />
        </mxCell>
        <mxCell id="1IXuXAn8EZQsGCZL8_qB-10" value="" style="edgeStyle=orthogonalEdgeStyle;rounded=0;orthogonalLoop=1;jettySize=auto;html=1;" edge="1" parent="1" source="1IXuXAn8EZQsGCZL8_qB-4" target="1IXuXAn8EZQsGCZL8_qB-9">
          <mxGeometry relative="1" as="geometry" />
        </mxCell>
        <mxCell id="1IXuXAn8EZQsGCZL8_qB-4" value="Question side" style="whiteSpace=wrap;html=1;rounded=0;" vertex="1" parent="1">
          <mxGeometry x="280" y="420" width="120" height="60" as="geometry" />
        </mxCell>
        <mxCell id="1IXuXAn8EZQsGCZL8_qB-11" style="edgeStyle=orthogonalEdgeStyle;rounded=0;orthogonalLoop=1;jettySize=auto;html=1;entryX=0.5;entryY=0;entryDx=0;entryDy=0;" edge="1" parent="1" source="1IXuXAn8EZQsGCZL8_qB-6" target="1IXuXAn8EZQsGCZL8_qB-9">
          <mxGeometry relative="1" as="geometry" />
        </mxCell>
        <mxCell id="1IXuXAn8EZQsGCZL8_qB-6" value="Answer Side" style="whiteSpace=wrap;html=1;rounded=0;" vertex="1" parent="1">
          <mxGeometry x="450" y="420" width="120" height="60" as="geometry" />
        </mxCell>
        <mxCell id="1IXuXAn8EZQsGCZL8_qB-9" value="Images and / or text" style="whiteSpace=wrap;html=1;rounded=0;" vertex="1" parent="1">
          <mxGeometry x="370" y="540" width="120" height="60" as="geometry" />
        </mxCell>
        <mxCell id="1IXuXAn8EZQsGCZL8_qB-13" style="edgeStyle=orthogonalEdgeStyle;rounded=0;orthogonalLoop=1;jettySize=auto;html=1;entryX=0.5;entryY=0;entryDx=0;entryDy=0;" edge="1" parent="1" source="1IXuXAn8EZQsGCZL8_qB-12" target="1IXuXAn8EZQsGCZL8_qB-1">
          <mxGeometry relative="1" as="geometry" />
        </mxCell>
        <mxCell id="1IXuXAn8EZQsGCZL8_qB-12" value="Deck" style="rounded=0;whiteSpace=wrap;html=1;" vertex="1" parent="1">
          <mxGeometry x="370" y="140" width="120" height="60" as="geometry" />
        </mxCell>
      </root>
    </mxGraphModel>
  </diagram>
</mxfile>
